<svg xmlns="http://www.w3.org/2000/svg" xmlns:xlink="http://www.w3.org/1999/xlink" width="57" height="115" viewBox="0 0 57 115">
  <defs>
    <path id="galaxy-s9-plus@1.5x-b" d="M50.8145752,28.9588439 L50.5960179,28.9588439 L50.5960179,6.0103261 C50.5960179,2.73196641 47.8640515,0 44.5856918,0 L6.33816207,0 C3.05980238,0 0.327835969,2.73196641 0.327835969,6.0103261 L0.327835969,102.831216 C0.327835969,106.109575 3.05980238,108.841542 6.33816207,108.841542 L44.6949705,108.841542 C47.9733302,108.841542 50.7052966,106.109575 50.7052966,102.831216 L50.7052966,36.9361859 L50.9238539,36.9361859 C51.0331325,36.9361859 51.0331325,36.9361859 51.0331325,36.8269072 L51.0331325,29.0681226 C50.9238539,28.9588439 50.9238539,28.9588439 50.8145752,28.9588439 Z M22.1835672,2.40413044 L28.631008,2.40413044 C28.8495653,2.40413044 28.9588439,2.62268775 28.8495653,2.84124507 L28.7402866,3.05980238 C28.7402866,3.16908104 28.5217293,3.27835969 28.4124507,3.27835969 L22.4021246,3.27835969 C22.2928459,3.27835969 22.1835672,3.16908104 22.0742886,3.05980238 L21.9650099,2.84124507 C21.8557313,2.5134091 21.9650099,2.40413044 22.1835672,2.40413044 Z M0,17.484585 L0,31.3629744 C0,31.472253 0,31.472253 0.109278656,31.472253 L0.327835969,31.472253 L0.327835969,17.3753064 L0.109278656,17.3753064 C0,17.3753064 0,17.3753064 0,17.484585 Z M0,37.1547432 L0,44.9135278 C0,45.0228064 0,45.0228064 0.109278656,45.0228064 L0.327835969,45.0228064 L0.327835969,37.0454645 L0.109278656,37.0454645 C0,37.0454645 0,37.1547432 0,37.1547432 Z"/>
    <filter id="galaxy-s9-plus@1.5x-a" width="120.7%" height="109.7%" x="-10.3%" y="-3.9%" filterUnits="objectBoundingBox">
      <feMorphology in="SourceAlpha" operator="dilate" radius=".275" result="shadowSpreadOuter1"/>
      <feOffset dy="1" in="shadowSpreadOuter1" result="shadowOffsetOuter1"/>
      <feGaussianBlur in="shadowOffsetOuter1" result="shadowBlurOuter1" stdDeviation="1.5"/>
      <feComposite in="shadowBlurOuter1" in2="SourceAlpha" operator="out" result="shadowBlurOuter1"/>
      <feColorMatrix in="shadowBlurOuter1" values="0 0 0 0 0   0 0 0 0 0   0 0 0 0 0  0 0 0 0.107223732 0"/>
    </filter>
    <linearGradient id="galaxy-s9-plus@1.5x-c" x1="50%" x2="50%" y1="0%" y2="100%">
      <stop offset="0%" stop-color="#72A3B8"/>
      <stop offset="100%" stop-color="#507199"/>
    </linearGradient>
  </defs>
  <g fill="none" fill-rule="evenodd" transform="translate(3 2)">
    <use fill="#000" filter="url(#galaxy-s9-plus@1.5x-a)" xlink:href="#galaxy-s9-plus@1.5x-b"/>
    <use fill="#FDFDFD" stroke="#5E5E5E" stroke-width=".551" xlink:href="#galaxy-s9-plus@1.5x-b"/>
    <path fill="url(#galaxy-s9-plus@1.5x-c)" stroke="#2F2F2F" stroke-opacity=".359" stroke-width=".716" d="M49.1452113,100.099249 L49.1452113,9.39796445 C49.1452113,7.19156299 47.3384865,5.38483819 45.1320851,5.38483819 L5.79176879,5.38483819 C3.58536733,5.38483819 1.77864253,7.19156299 1.77864253,9.39796445 L1.77864253,100.099249 C1.77864253,102.305651 3.58536733,104.112376 5.79176879,104.112376 L45.1320851,104.112376 C47.3384865,104.112376 49.1452113,102.305651 49.1452113,100.099249 Z"/>
  </g>
</svg>
