<svg xmlns="http://www.w3.org/2000/svg" xmlns:xlink="http://www.w3.org/1999/xlink" width="49" height="98" viewBox="0 0 49 98">
  <defs>
    <path id="galaxy-s9@1.5x-b" d="M42.8158458,24.4779116 L42.6316916,24.4779116 L42.6316916,5.08032129 C42.6316916,2.30923695 40.3297645,0 37.5674518,0 L5.34047109,0 C2.57815846,0 0.276231263,2.30923695 0.276231263,5.08032129 L0.276231263,86.9196787 C0.276231263,89.6907631 2.57815846,92 5.34047109,92 L37.6595289,92 C40.4218415,92 42.7237687,89.6907631 42.7237687,86.9196787 L42.7237687,31.2208835 L42.9079229,31.2208835 C43,31.2208835 43,31.2208835 43,31.1285141 L43,24.5702811 C42.9079229,24.4779116 42.9079229,24.4779116 42.8158458,24.4779116 Z M18.6916488,2.03212851 L24.124197,2.03212851 C24.3083512,2.03212851 24.4004283,2.21686747 24.3083512,2.40160643 L24.2162741,2.58634538 C24.2162741,2.67871486 24.0321199,2.77108434 23.9400428,2.77108434 L18.875803,2.77108434 C18.7837259,2.77108434 18.6916488,2.67871486 18.5995717,2.58634538 L18.5074946,2.40160643 C18.4154176,2.12449799 18.5074946,2.03212851 18.6916488,2.03212851 Z M0,14.7791165 L0,26.5100402 C0,26.6024096 0,26.6024096 0.0920770878,26.6024096 L0.276231263,26.6024096 L0.276231263,14.686747 L0.0920770878,14.686747 C0,14.686747 0,14.686747 0,14.7791165 Z M0,31.4056225 L0,37.9638554 C0,38.0562249 0,38.0562249 0.0920770878,38.0562249 L0.276231263,38.0562249 L0.276231263,31.313253 L0.0920770878,31.313253 C0,31.313253 0,31.4056225 0,31.4056225 Z"/>
    <filter id="galaxy-s9@1.5x-a" width="124.5%" height="111.5%" x="-12.3%" y="-4.6%" filterUnits="objectBoundingBox">
      <feMorphology in="SourceAlpha" operator="dilate" radius=".275" result="shadowSpreadOuter1"/>
      <feOffset dy="1" in="shadowSpreadOuter1" result="shadowOffsetOuter1"/>
      <feGaussianBlur in="shadowOffsetOuter1" result="shadowBlurOuter1" stdDeviation="1.5"/>
      <feComposite in="shadowBlurOuter1" in2="SourceAlpha" operator="out" result="shadowBlurOuter1"/>
      <feColorMatrix in="shadowBlurOuter1" values="0 0 0 0 0   0 0 0 0 0   0 0 0 0 0  0 0 0 0.107223732 0"/>
    </filter>
    <linearGradient id="galaxy-s9@1.5x-c" x1="50%" x2="50%" y1="0%" y2="100%">
      <stop offset="0%" stop-color="#72A3B8"/>
      <stop offset="100%" stop-color="#507199"/>
    </linearGradient>
  </defs>
  <g fill="none" fill-rule="evenodd" transform="translate(3 2)">
    <use fill="#000" filter="url(#galaxy-s9@1.5x-a)" xlink:href="#galaxy-s9@1.5x-b"/>
    <use fill="#FDFDFD" stroke="#5E5E5E" stroke-width=".551" xlink:href="#galaxy-s9@1.5x-b"/>
    <path fill="url(#galaxy-s9@1.5x-c)" stroke="#2F2F2F" stroke-opacity=".359" stroke-width=".716" d="M41.64198,84.3076923 L41.64198,7.69230769 C41.64198,5.86002674 40.1257497,4.35802 38.2727273,4.35802 L4.72727273,4.35802 C2.87425029,4.35802 1.35802,5.86002674 1.35802,7.69230769 L1.35802,84.3076923 C1.35802,86.1399733 2.87425029,87.64198 4.72727273,87.64198 L38.2727273,87.64198 C40.1257497,87.64198 41.64198,86.1399733 41.64198,84.3076923 Z"/>
  </g>
</svg>
